<svg width="800" height="400" xmlns="http://www.w3.org/2000/svg">
  <polygon points="50,50 150,50 150,150 50,150" fill="solid" stroke="black" stroke-width="2"/>
  <polygon points="200,200 350,200 350,350 200,350" fill="solid" stroke="black" stroke-width="2"/>
  <polygon points="100,300 200,250 250,350" fill="solid" stroke="black" stroke-width="2"/>
  <polygon points="350,100 450,150 400,200 300,150" fill="solid" stroke="black" stroke-width="2"/>
  <polygon points="500,50 600,50 550,150" fill="solid" stroke="black" stroke-width="2"/>
  <polygon points="700,300 750,250 700,200 650,250" fill="solid" stroke="black" stroke-width="2"/>
  <polygon points="100,100 150,50 200,100 150,150" fill="solid" stroke="black" stroke-width="2"/>
  <polygon points="400,300 450,250 500,300 450,350" fill="solid" stroke="black" stroke-width="2"/>
  <polygon points="300,50 350,100 300,150 250,100" fill="solid" stroke="black" stroke-width="2"/>
  <polygon points="550,200 700,200 700,400 550,350" fill="solid" stroke="black" stroke-width="2"/>
</svg>
